<svg width="24" height="17" viewBox="0 0 24 17" fill="none" xmlns="http://www.w3.org/2000/svg">
<path d="M5.33333 4.66699H18.6667V12.667H5.33333V4.66699ZM22 8.66699C22 9.77158 22.8954 10.667 24 10.667V14.667C24 15.7716 23.1046 16.667 22 16.667H2C0.895417 16.667 0 15.7716 0 14.667V10.667C1.10458 10.667 2 9.77158 2 8.66699C2 7.56241 1.10458 6.66699 0 6.66699V2.66699C0 1.56241 0.895417 0.666992 2 0.666992H22C23.1046 0.666992 24 1.56241 24 2.66699V6.66699C22.8954 6.66699 22 7.56241 22 8.66699ZM20 4.33366C20 3.78137 19.5523 3.33366 19 3.33366H5C4.44771 3.33366 4 3.78137 4 4.33366V13.0003C4 13.5526 4.44771 14.0003 5 14.0003H19C19.5523 14.0003 20 13.5526 20 13.0003V4.33366Z" fill="#0F17C3"/>
</svg>
